<svg width="25" height="23" viewBox="0 0 25 23" fill="none" xmlns="http://www.w3.org/2000/svg">
<g clip-path="url(#clip0_290_883)">
<path d="M12.499 2.1665C9.13229 2.1665 6.43646 3.69984 4.47396 5.52484C2.52396 7.33317 1.21979 9.49984 0.603125 10.9873C0.465625 11.3165 0.465625 11.6832 0.603125 12.0123C1.21979 13.4998 2.52396 15.6665 4.47396 17.4748C6.43646 19.2998 9.13229 20.8332 12.499 20.8332C15.8656 20.8332 18.5615 19.2998 20.524 17.4748C22.474 15.6623 23.7781 13.4998 24.399 12.0123C24.5365 11.6832 24.5365 11.3165 24.399 10.9873C23.7781 9.49984 22.474 7.33317 20.524 5.52484C18.5615 3.69984 15.8656 2.1665 12.499 2.1665ZM6.49896 11.4998C6.49896 9.90854 7.1311 8.38241 8.25632 7.2572C9.38154 6.13198 10.9077 5.49984 12.499 5.49984C14.0903 5.49984 15.6164 6.13198 16.7416 7.2572C17.8668 8.38241 18.499 9.90854 18.499 11.4998C18.499 13.0911 17.8668 14.6173 16.7416 15.7425C15.6164 16.8677 14.0903 17.4998 12.499 17.4998C10.9077 17.4998 9.38154 16.8677 8.25632 15.7425C7.1311 14.6173 6.49896 13.0911 6.49896 11.4998ZM12.499 8.83317C12.499 10.304 11.3031 11.4998 9.83229 11.4998C9.53646 11.4998 9.25313 11.4498 8.98646 11.3623C8.75729 11.2873 8.49063 11.429 8.49896 11.6707C8.51146 11.9582 8.55313 12.2457 8.63229 12.5332C9.20312 14.6665 11.399 15.9332 13.5323 15.3623C15.6656 14.7915 16.9323 12.5957 16.3615 10.4623C15.899 8.73317 14.3698 7.57067 12.6698 7.49984C12.4281 7.4915 12.2865 7.754 12.3615 7.98734C12.449 8.254 12.499 8.53734 12.499 8.83317Z" fill="#EDF0F6"/>
</g>
<defs>
<clipPath id="clip0_290_883">
<rect width="24" height="21.3333" fill="white" transform="translate(0.5 0.833252)"/>
</clipPath>
</defs>
</svg>

