<?xml version="1.0" standalone="no"?>
<!DOCTYPE svg PUBLIC "-//W3C//DTD SVG 20010904//EN"
 "http://www.w3.org/TR/2001/REC-SVG-20010904/DTD/svg10.dtd">
<svg version="1.0" xmlns="http://www.w3.org/2000/svg"
 width="512.000000pt" height="512.000000pt" viewBox="0 0 512.000000 512.000000"
 preserveAspectRatio="xMidYMid meet">

<g transform="translate(0.000000,512.000000) scale(0.100000,-0.100000)"
fill="#4a4747" stroke="none">
<path d="M2470 5053 c-396 -27 -783 -130 -1115 -295 -683 -341 -1133 -964
-1299 -1798 -111 -557 -49 -1083 183 -1550 126 -256 275 -462 496 -689 240
-246 422 -384 670 -506 280 -138 421 -174 482 -121 25 21 28 33 34 107 4 46 8
163 8 260 l1 177 -222 5 c-158 3 -238 9 -276 20 -181 53 -285 144 -378 332
-92 186 -145 255 -263 345 -49 38 -105 110 -94 120 5 4 34 14 65 23 49 13 65
13 107 2 126 -33 209 -100 336 -271 142 -190 253 -254 451 -256 74 0 207 30
249 58 17 11 42 62 90 181 36 92 64 167 63 168 -2 1 -55 12 -119 23 -331 62
-545 166 -720 350 -129 136 -207 301 -260 552 -30 143 -33 422 -5 550 35 162
96 299 178 403 21 27 41 59 44 72 3 13 -2 61 -12 107 -26 128 -22 288 10 418
31 124 49 154 98 158 95 8 305 -65 501 -175 116 -65 125 -68 187 -68 36 0 116
10 178 22 184 36 395 49 575 34 83 -6 181 -18 217 -26 36 -8 108 -18 160 -21
121 -8 182 8 305 81 156 92 276 135 420 150 84 9 98 -4 131 -125 31 -115 43
-299 25 -405 -28 -162 -31 -144 42 -252 36 -54 80 -131 97 -171 144 -338 97
-872 -102 -1177 -61 -94 -168 -205 -253 -262 -149 -100 -350 -175 -570 -213
-66 -12 -126 -23 -133 -25 -9 -3 -2 -19 22 -51 45 -59 81 -135 103 -216 13
-52 17 -139 22 -508 6 -475 6 -473 57 -507 45 -29 109 -20 240 32 685 275
1197 793 1454 1470 332 873 167 1845 -435 2565 -79 94 -256 267 -358 349 -327
264 -767 460 -1177 525 -170 27 -373 39 -510 29z"/>
<path d="M1247 1043 c-12 -12 -7 -28 17 -62 l24 -33 18 27 c16 25 16 27 -6 50
-23 25 -41 31 -53 18z"/>
<path d="M1621 918 c-15 -43 -14 -45 14 -64 23 -15 27 -15 50 0 14 9 25 20 25
24 0 4 -18 22 -39 39 l-39 33 -11 -32z"/>
<path d="M1417 933 c-15 -14 -5 -30 27 -45 30 -15 36 -15 55 -2 29 21 27 28
-12 42 -37 13 -60 15 -70 5z"/>
<path d="M1837 922 c-32 -20 -32 -20 -7 -52 l19 -25 25 24 c30 29 33 47 8 60
-12 7 -26 5 -45 -7z"/>
</g>
</svg>
