<?xml version="1.0" standalone="no"?>
<!DOCTYPE svg PUBLIC "-//W3C//DTD SVG 20010904//EN"
 "http://www.w3.org/TR/2001/REC-SVG-20010904/DTD/svg10.dtd">
<svg version="1.0" xmlns="http://www.w3.org/2000/svg"
 width="512.000000pt" height="512.000000pt" viewBox="0 0 512.000000 512.000000"
 preserveAspectRatio="xMidYMid meet">

<g transform="translate(-32.000000,535.000000) scale(0.111000,-0.111000)"
fill="#4a4747" stroke="none">
<path d="M2370 4804 c-625 -72 -1167 -366 -1556 -844 -198 -243 -362 -571
-438 -879 -53 -210 -60 -280 -61 -556 0 -230 3 -275 24 -390 85 -477 303 -896
638 -1231 348 -349 781 -567 1288 -650 154 -26 505 -26 665 -1 424 67 815 242
1131 506 437 366 716 862 806 1431 25 160 25 511 -1 665 -83 507 -301 940
-650 1288 -334 334 -756 554 -1226 637 -100 18 -170 23 -355 25 -126 2 -246 1
-265 -1z m-458 -1087 c90 -52 130 -124 132 -232 0 -54 -5 -81 -23 -117 -28
-59 -88 -112 -149 -132 -53 -19 -182 -20 -229 -3 -64 24 -119 73 -148 131 -57
116 -25 261 72 330 68 48 98 56 203 53 83 -2 102 -6 142 -30z m1513 -692 c211
-44 357 -186 426 -415 23 -73 23 -86 27 -622 l3 -548 -255 0 -255 0 -3 473
c-4 446 -5 475 -25 534 -27 80 -54 117 -111 150 -41 24 -58 28 -127 28 -70 0
-87 -4 -134 -30 -32 -17 -68 -49 -88 -75 -62 -84 -63 -94 -63 -612 l0 -468
-260 0 -260 0 0 780 0 780 260 0 260 0 0 -107 1 -108 21 30 c129 180 349 259
583 210z m-1415 -805 l0 -780 -257 2 -258 3 -3 778 -2 777 260 0 260 0 0 -780z"/>
</g>
</svg>
