<svg width="175" height="101" viewBox="0 0 175 101" fill="none" xmlns="http://www.w3.org/2000/svg">
  <defs>
    <linearGradient id="commonGradient" x1="0" y1="0" x2="175" y2="0" gradientUnits="userSpaceOnUse">
      <stop offset="0%" stop-color="#00FFD9" />
      <stop offset="100%" stop-color="#3CFFFF" />
    </linearGradient>
  </defs>
  <g fill="url(#commonGradient)">
    <path d="M160.35 14.64C153.357 7.64893 144.448 2.8884 134.749 0.960342C125.051 -0.967717 114.998 0.0232744 105.863 3.80802C96.7273 7.59276 88.9192 14.0013 83.4258 22.2233C77.9323 30.4453 75.0002 40.1116 75 50C75 54.9445 73.5338 59.778 70.7868 63.8893C68.0397 68.0005 64.1353 71.2048 59.5671 73.097C54.999 74.9892 49.9723 75.4843 45.1228 74.5196C40.2732 73.555 35.8187 71.174 32.3224 67.6777C28.826 64.1814 26.445 59.7268 25.4804 54.8773C24.5158 50.0277 25.0108 45.0011 26.903 40.4329C28.7952 35.8648 31.9995 31.9603 36.1108 29.2133C40.222 26.4662 45.0555 25 50 25V0C40.111 0 30.444 2.93245 22.2215 8.42652C13.9991 13.9206 7.59043 21.7295 3.80605 30.8658C0.0216641 40.0021 -0.968503 50.0555 0.960759 59.7545C2.89002 69.4536 7.65206 78.3627 14.6447 85.3553C21.6373 92.348 30.5465 97.11 40.2455 99.0393C49.9446 100.969 59.9979 99.9784 69.1342 96.194C78.2705 92.4096 86.0794 86.001 91.5735 77.7785C97.0676 69.5561 100 59.8891 100 50C100 43.3696 102.634 37.0107 107.322 32.3223C112.011 27.6339 118.37 25 125 25C131.63 25 137.989 27.6339 142.678 32.3223C147.366 37.0107 150 43.3696 150 50H175C175 43.4327 173.706 36.9298 171.192 30.8627C168.679 24.7956 164.994 19.283 160.35 14.64Z"/>
    <path d="M163.897 66.574H168.861V100.441H163.897V66.574ZM174.653 65.9121V69.9386H158.105V65.9121H174.653Z"/>
    <path d="M149.558 65.9121H154.522V100.441H149.558V65.9121Z"/>
    <path d="M133.243 83.2317H138.483L145.653 100.441H140.248L133.243 83.2317ZM138.483 83.2317H133.243L140.358 65.9121H145.764L138.483 83.2317ZM127.948 65.9121H132.912V100.441H127.948V65.9121Z"/>
    <path d="M117.892 94.8148V86.3757C117.892 85.7138 117.782 85.2909 117.561 85.1071C117.377 84.8864 116.954 84.7761 116.292 84.7761H112.211C110.446 84.7761 109.159 84.3532 108.35 83.5075C107.578 82.6617 107.191 81.4483 107.191 79.8671V70.766C107.191 69.1848 107.596 67.9897 108.405 67.1807C109.251 66.335 110.556 65.9121 112.321 65.9121H117.727C119.528 65.9121 120.834 66.335 121.643 67.1807C122.452 67.9897 122.856 69.1848 122.856 70.766V75.8405H117.837V71.5382C117.837 70.8763 117.727 70.4534 117.506 70.2696C117.322 70.049 116.881 69.9386 116.182 69.9386H113.866C113.204 69.9386 112.762 70.049 112.542 70.2696C112.321 70.4534 112.211 70.8763 112.211 71.5382V79.2052C112.211 79.8303 112.321 80.2532 112.542 80.4738C112.762 80.6944 113.204 80.8047 113.866 80.8047H117.892C119.657 80.8047 120.944 81.2276 121.753 82.0734C122.562 82.8824 122.967 84.0774 122.967 85.6586V95.5871C122.967 97.1683 122.544 98.3817 121.698 99.2275C120.889 100.036 119.602 100.441 117.837 100.441H112.431C110.666 100.441 109.361 100.036 108.515 99.2275C107.706 98.3817 107.302 97.1683 107.302 95.5871V90.5125H112.321V94.8148C112.321 95.44 112.431 95.8629 112.652 96.0835C112.873 96.3041 113.314 96.4144 113.976 96.4144H116.292C116.954 96.4144 117.377 96.3041 117.561 96.0835C117.782 95.8629 117.892 95.44 117.892 94.8148Z"/>
  </g>
</svg>
